<mxfile host="app.diagrams.net" modified="2022-12-27T04:13:26.321Z" agent="5.0 (Windows NT 10.0; Win64; x64) AppleWebKit/537.36 (KHTML, like Gecko) Chrome/108.0.0.0 Safari/537.36 Edg/108.0.1462.54" etag="ZRs6zMj_WkyS08lUrSxx" version="20.7.4" type="github">
  <diagram id="UQxL-4rttX_vXHJDPwwq" name="Page-1">
    <mxGraphModel dx="1917" dy="608" grid="1" gridSize="10" guides="1" tooltips="1" connect="1" arrows="1" fold="1" page="1" pageScale="1" pageWidth="850" pageHeight="1100" math="0" shadow="0">
      <root>
        <mxCell id="0" />
        <mxCell id="1" parent="0" />
        <mxCell id="b5vCxqkxYePm5Bu_lhrh-1" value="2 Project Owner&amp;nbsp;" style="rounded=1;whiteSpace=wrap;html=1;" parent="1" vertex="1">
          <mxGeometry x="130" y="310" width="120" height="60" as="geometry" />
        </mxCell>
        <mxCell id="b5vCxqkxYePm5Bu_lhrh-2" value="1. Admin" style="ellipse;whiteSpace=wrap;html=1;" parent="1" vertex="1">
          <mxGeometry x="360" y="240" width="120" height="80" as="geometry" />
        </mxCell>
        <mxCell id="b5vCxqkxYePm5Bu_lhrh-3" value="3.Auditor" style="ellipse;whiteSpace=wrap;html=1;" parent="1" vertex="1">
          <mxGeometry x="580" y="320" width="120" height="80" as="geometry" />
        </mxCell>
        <mxCell id="b5vCxqkxYePm5Bu_lhrh-4" value="" style="shape=tape;whiteSpace=wrap;html=1;rotation=90;size=0.2;" parent="1" vertex="1">
          <mxGeometry x="360" y="350" width="120" height="100" as="geometry" />
        </mxCell>
        <mxCell id="b5vCxqkxYePm5Bu_lhrh-5" value="4.Claim Co2&amp;nbsp;&lt;br&gt;Emission&lt;br&gt;" style="whiteSpace=wrap;html=1;aspect=fixed;" parent="1" vertex="1">
          <mxGeometry x="170" y="460" width="80" height="80" as="geometry" />
        </mxCell>
        <mxCell id="NCpv6do11uS8E3R9ngCf-1" style="edgeStyle=orthogonalEdgeStyle;rounded=0;orthogonalLoop=1;jettySize=auto;html=1;" edge="1" parent="1" source="b5vCxqkxYePm5Bu_lhrh-6">
          <mxGeometry relative="1" as="geometry">
            <mxPoint x="250" y="785" as="targetPoint" />
          </mxGeometry>
        </mxCell>
        <mxCell id="b5vCxqkxYePm5Bu_lhrh-6" value="&lt;div&gt;Log in/ Sign up for&amp;nbsp;&lt;/div&gt;&lt;div&gt;Farmer/ FPO&lt;/div&gt;" style="shape=process;whiteSpace=wrap;html=1;backgroundOutline=1;" parent="1" vertex="1">
          <mxGeometry x="-10" y="740" width="160" height="90" as="geometry" />
        </mxCell>
        <mxCell id="b5vCxqkxYePm5Bu_lhrh-9" value="" style="edgeStyle=orthogonalEdgeStyle;rounded=0;orthogonalLoop=1;jettySize=auto;html=1;" parent="1" source="b5vCxqkxYePm5Bu_lhrh-7" target="b5vCxqkxYePm5Bu_lhrh-8" edge="1">
          <mxGeometry relative="1" as="geometry" />
        </mxCell>
        <mxCell id="b5vCxqkxYePm5Bu_lhrh-7" value="&lt;div&gt;OnBoarding&amp;nbsp;&lt;/div&gt;&lt;div&gt;basic KYC, electricity consumption and fertilizers,&lt;/div&gt;&lt;div&gt;land coordinates, (area),&lt;/div&gt;&lt;div&gt;Crop grown&lt;/div&gt;&lt;div&gt;&lt;br&gt;&lt;/div&gt;" style="rounded=1;whiteSpace=wrap;html=1;" parent="1" vertex="1">
          <mxGeometry x="250" y="730" width="240" height="100" as="geometry" />
        </mxCell>
        <mxCell id="b5vCxqkxYePm5Bu_lhrh-12" value="" style="edgeStyle=orthogonalEdgeStyle;rounded=0;orthogonalLoop=1;jettySize=auto;html=1;" parent="1" source="b5vCxqkxYePm5Bu_lhrh-8" target="b5vCxqkxYePm5Bu_lhrh-11" edge="1">
          <mxGeometry relative="1" as="geometry" />
        </mxCell>
        <mxCell id="b5vCxqkxYePm5Bu_lhrh-8" value="Data from Sensor Neo Auro IOT Device&amp;nbsp;" style="whiteSpace=wrap;html=1;rounded=1;" parent="1" vertex="1">
          <mxGeometry x="610" y="735" width="150" height="90" as="geometry" />
        </mxCell>
        <mxCell id="b5vCxqkxYePm5Bu_lhrh-14" value="" style="edgeStyle=orthogonalEdgeStyle;rounded=0;orthogonalLoop=1;jettySize=auto;html=1;" parent="1" source="b5vCxqkxYePm5Bu_lhrh-11" target="b5vCxqkxYePm5Bu_lhrh-13" edge="1">
          <mxGeometry relative="1" as="geometry" />
        </mxCell>
        <mxCell id="b5vCxqkxYePm5Bu_lhrh-11" value="calculate Carbon Credit based on CO2 emissions" style="whiteSpace=wrap;html=1;rounded=1;" parent="1" vertex="1">
          <mxGeometry x="840" y="735" width="160" height="90" as="geometry" />
        </mxCell>
        <mxCell id="b5vCxqkxYePm5Bu_lhrh-16" value="" style="edgeStyle=orthogonalEdgeStyle;rounded=0;orthogonalLoop=1;jettySize=auto;html=1;" parent="1" source="b5vCxqkxYePm5Bu_lhrh-13" target="b5vCxqkxYePm5Bu_lhrh-15" edge="1">
          <mxGeometry relative="1" as="geometry" />
        </mxCell>
        <mxCell id="b5vCxqkxYePm5Bu_lhrh-13" value="Audited by Vera or Gold" style="ellipse;whiteSpace=wrap;html=1;rounded=1;" parent="1" vertex="1">
          <mxGeometry x="835" y="920" width="170" height="80" as="geometry" />
        </mxCell>
        <mxCell id="b5vCxqkxYePm5Bu_lhrh-18" value="" style="edgeStyle=orthogonalEdgeStyle;rounded=0;orthogonalLoop=1;jettySize=auto;html=1;" parent="1" source="b5vCxqkxYePm5Bu_lhrh-15" target="b5vCxqkxYePm5Bu_lhrh-17" edge="1">
          <mxGeometry relative="1" as="geometry" />
        </mxCell>
        <mxCell id="b5vCxqkxYePm5Bu_lhrh-15" value="Carbon credit given to farmer/FPO" style="whiteSpace=wrap;html=1;rounded=1;" parent="1" vertex="1">
          <mxGeometry x="440" y="910" width="180" height="100" as="geometry" />
        </mxCell>
        <mxCell id="b5vCxqkxYePm5Bu_lhrh-17" value="Marketplace Trading Carbon credit&amp;nbsp;" style="whiteSpace=wrap;html=1;rounded=1;" parent="1" vertex="1">
          <mxGeometry x="445" y="1080" width="170" height="90" as="geometry" />
        </mxCell>
      </root>
    </mxGraphModel>
  </diagram>
</mxfile>
